<svg xmlns="http://www.w3.org/2000/svg" width="28" height="28" fill="none" viewBox="0 0 28 28" class="icon_icon__mP5gU icon_icon_S__hV4Lw">
    <g clip-path="url(#clip0_513_857)">
        <path fill="#fff" d="M13.919.813C6.508.813.5 6.821.5 14.232c0 6.293 4.333 11.573 10.177 13.023v-8.922H7.91v-4.101h2.767v-1.767c0-4.567 2.067-6.684 6.551-6.684.85 0 2.317.167 2.918.333V9.83c-.317-.033-.867-.05-1.55-.05-2.2 0-3.05.834-3.05 3v1.45h4.382l-.753 4.101h-3.63v9.22c6.644-.802 11.793-6.46 11.793-13.32C27.338 6.82 21.33.813 13.918.813z"></path>
    </g>
    <defs>
        <clipPath id="clip0_513_857">
            <path fill="#fff" d="M0 0H26.837V26.837H0z" transform="translate(.5 .813)"></path>
        </clipPath>
    </defs>
</svg>