<svg xmlns="http://www.w3.org/2000/svg" width="28" height="28" fill="none" viewBox="0 0 28 28" class="icon_icon__mP5gU icon_icon_S__hV4Lw">
    <g fill="#fff" clip-path="url(#clip0_513_861)">
        <path d="M13.86 3.23c3.585 0 4.01.015 5.42.078 1.31.058 2.018.278 2.49.461a4.15 4.15 0 011.54 1.001c.472.472.76.918 1.002 1.542.183.471.403 1.184.46 2.49.064 1.415.08 1.84.08 5.42 0 3.585-.016 4.01-.08 5.42-.057 1.31-.277 2.017-.46 2.489a4.15 4.15 0 01-1.002 1.541c-.471.472-.917.76-1.54 1.001-.472.184-1.185.404-2.49.461-1.416.063-1.84.08-5.42.08-3.586 0-4.01-.017-5.42-.08-1.31-.057-2.018-.277-2.49-.46a4.151 4.151 0 01-1.541-1.002 4.128 4.128 0 01-1.001-1.541c-.184-.472-.404-1.185-.462-2.49-.062-1.415-.078-1.84-.078-5.42 0-3.585.016-4.01.078-5.42.058-1.31.278-2.018.462-2.49a4.15 4.15 0 011-1.54c.473-.472.918-.76 1.542-1.002.472-.183 1.185-.403 2.49-.461 1.41-.063 1.834-.079 5.42-.079zm0-2.417c-3.643 0-4.1.016-5.53.079-1.426.063-2.406.293-3.255.623a6.55 6.55 0 00-2.38 1.552A6.575 6.575 0 001.143 5.44c-.33.855-.56 1.83-.623 3.255-.063 1.437-.08 1.893-.08 5.536s.017 4.099.08 5.53c.062 1.425.293 2.406.623 3.255a6.55 6.55 0 001.552 2.38 6.56 6.56 0 002.374 1.546c.855.33 1.83.56 3.255.624 1.431.063 1.887.078 5.53.078 3.643 0 4.1-.015 5.53-.078 1.426-.063 2.406-.294 3.256-.624a6.56 6.56 0 002.374-1.547 6.56 6.56 0 001.546-2.374c.33-.854.561-1.83.624-3.255.063-1.431.079-1.887.079-5.53 0-3.643-.016-4.099-.079-5.53-.063-1.426-.294-2.406-.624-3.255a6.286 6.286 0 00-1.536-2.385A6.559 6.559 0 0022.65 1.52c-.854-.33-1.83-.561-3.255-.624C17.959.829 17.503.813 13.86.813z"></path>
        <path d="M13.86 7.339a6.895 6.895 0 00-6.893 6.893 6.895 6.895 0 006.893 6.893 6.894 6.894 0 006.892-6.893 6.894 6.894 0 00-6.892-6.893zm0 11.364a4.472 4.472 0 110-8.944 4.472 4.472 0 010 8.944zM22.634 7.066a1.61 1.61 0 11-3.219 0 1.61 1.61 0 013.22 0z"></path>
    </g>
    <defs>
        <clipPath id="clip0_513_861">
            <path fill="#fff" d="M0 0H26.837V26.837H0z" transform="translate(.44 .813)"></path>
        </clipPath>
    </defs>
</svg>