<svg xmlns="http://www.w3.org/2000/svg" width="28" height="28" fill="none" viewBox="0 0 28 28" class="icon_icon__mP5gU icon_icon_S__hV4Lw">
    <g clip-path="url(#clip0_513_865)">
        <path fill="#fff" d="M25.762.813H2.892c-1.095 0-1.98.865-1.98 1.934v22.964c0 1.07.885 1.94 1.98 1.94h22.87c1.096 0 1.987-.87 1.987-1.935V2.747c0-1.07-.891-1.934-1.987-1.934zM8.873 23.683H4.89V10.872h3.984v12.81zM6.883 9.126a2.308 2.308 0 110-4.612 2.306 2.306 0 010 4.612zM23.78 23.683h-3.979v-6.228c0-1.483-.026-3.396-2.07-3.396-2.07 0-2.385 1.62-2.385 3.292v6.332h-3.973V10.872h3.816v1.75h.052c.53-1.006 1.83-2.07 3.764-2.07 4.03 0 4.775 2.652 4.775 6.101v7.03z"></path>
    </g>
    <defs>
        <clipPath id="clip0_513_865">
            <path fill="#fff" d="M0 0H26.837V26.837H0z" transform="translate(.911 .813)"></path>
        </clipPath>
    </defs>
</svg>