<svg xmlns="http://www.w3.org/2000/svg" width="33" height="33" fill="none" viewBox="0 0 33 33" class="icon_icon__mP5gU icon_icon_S__hV4Lw">
    <g clip-path="url(#clip0_513_867)">
        <path fill="#fff" d="M32.18 9.808s-.314-2.214-1.28-3.186c-1.223-1.28-2.59-1.286-3.218-1.362-4.491-.326-11.235-.326-11.235-.326h-.012s-6.744 0-11.235.326c-.628.076-1.995.082-3.219 1.362C1.015 7.594.708 9.808.708 9.808s-.326 2.604-.326 5.2v2.435c0 2.597.32 5.2.32 5.2s.313 2.214 1.273 3.187c1.223 1.28 2.83 1.236 3.544 1.373 2.572.245 10.922.32 10.922.32s6.75-.012 11.241-.332c.628-.075 1.995-.082 3.218-1.361.966-.973 1.28-3.187 1.28-3.187s.32-2.597.32-5.2v-2.434c0-2.597-.32-5.2-.32-5.2zm-19.058 10.59V11.37l8.676 4.53-8.676 4.497z"></path>
    </g>
    <defs>
        <clipPath id="clip0_513_867">
            <path fill="#fff" d="M0 0H32.118V32.118H0z" transform="translate(.382 .173)"></path>
        </clipPath>
    </defs>
</svg>