<svg xmlns="http://www.w3.org/2000/svg" width="64" height="65" fill="none" viewBox="0 0 64 65" class="icon_icon__mP5gU icon_icon_L__RPoCN">
    <path stroke="url(#paint0_linear_422_4544)" stroke-linecap="round" stroke-linejoin="round" stroke-miterlimit="10" stroke-width="4" d="M32 29.756h26.667m-19.38 22.506v3.806a5.527 5.527 0 01-5.528 5.528H11.833a5.528 5.528 0 01-5.529-5.528V8.456a5.527 5.527 0 015.529-5.527h21.926a5.527 5.527 0 015.529 5.527v3.39m-22.071-.917h12.117m29.333 17.867v-3.104a2.763 2.763 0 00-2.764-2.763H34.764A2.763 2.763 0 0032 25.692v14.952c0 1.527 1.238 2.312 2.764 2.312h21.139c1.526 0 2.764-.785 2.764-2.312V28.796z"></path>
    <defs>
        <linearGradient id="paint0_linear_422_4544" x1="6.304" x2="64.594" y1="2.929" y2="54.955" gradientUnits="userSpaceOnUse">
            <stop stop-color="#0B4AC9"></stop>
            <stop offset="1" stop-color="#C724B1"></stop>
        </linearGradient>
    </defs>
</svg>