<svg xmlns="http://www.w3.org/2000/svg" width="66" height="63" fill="none" viewBox="0 0 66 63" class="icon_icon__mP5gU icon_icon_L__RPoCN">
    <path fill="url(#paint0_linear_422_4492)" d="M5.688 36.556a1.833 1.833 0 00-1.153 3.48l1.153-3.48zm18.037 7.534a1.833 1.833 0 000-3.666v3.666zm-.882-39.675a1.833 1.833 0 00-3.555-.895l3.555.895zm-2.226 51.493a1.833 1.833 0 103.556-.895l-3.556.895zm18.19-52.345a1.833 1.833 0 00-3.576.81l3.576-.81zm-1.776.456l-1.788.406 1.788-.405zm.707 26.29a1.833 1.833 0 103.664.133l-3.664-.133zM4.41 20.483a1.833 1.833 0 101.4 3.389l-1.4-3.389zm50.506 3.659a1.833 1.833 0 101.43-3.377l-1.43 3.377zM22.101 57.58a1.833 1.833 0 10.969-3.536l-.968 3.536zm-11.813-8.944l-1.302 1.29 1.302-1.29zM3.264 36.307l1.775-.461-1.775.461zm.138-14.165l1.765.496-1.765-.496zm7.264-12.19L9.389 8.636l1.277 1.316zM23.1 3.013l.45 1.777-.45-1.777zm14.262.18l-.495 1.765.495-1.765zm12.253 7.25l1.31-1.282-1.31 1.282zm5.172 12.821a1.833 1.833 0 103.555-.9l-3.555.9zm-14.286 27.97l-1.309-1.283-.524.535v.748h1.833zm-1.833 9.6a1.833 1.833 0 003.666 0H38.67zm.713-1.23a1.833 1.833 0 102.722 2.458l-2.722-2.457zm9.581-5.141a1.833 1.833 0 00-2.721-2.457l2.721 2.457zm14.646-26.79l1.754.533a1.833 1.833 0 00-2.549-2.184l.795 1.652zm-31.54 15.169l-.794-1.652.794 1.652zm.297 5.006l.625-1.723-.625 1.723zm4.703 3.656a1.833 1.833 0 001.25-3.448l-1.25 3.448zm19.027.931l-1.755-.532 1.755.532zm-3.965 1.87l-.565 1.744.565-1.744zm-7.013-4.197a1.833 1.833 0 10-1.129 3.489l1.13-3.489zM4.535 40.036c7.964 2.637 12.211 4.054 19.19 4.054v-3.666c-6.317 0-10.047-1.223-18.037-3.868l-1.153 3.48zM19.288 3.52c-4.084 16.222-2.709 36.348 1.33 52.388l3.555-.895c-3.94-15.648-5.223-35.132-1.33-50.598l-3.555-.895zm15.943.853l.012.052 3.576-.81-.012-.052-3.576.81zm.012.052c1.865 8.235 2.96 13.038 2.495 25.884l3.664.133c.481-13.267-.675-18.405-2.583-26.828l-3.576.81zM5.812 23.872c15.91-6.579 33.14-6.487 49.105.27l1.43-3.377c-16.864-7.136-35.112-7.238-51.936-.282l1.4 3.389zM23.07 54.044a25.712 25.712 0 01-11.48-6.699l-2.604 2.58a29.377 29.377 0 0013.116 7.655l.968-3.536zm-11.48-6.699a25.434 25.434 0 01-6.551-11.5l-3.55.923a29.1 29.1 0 007.497 13.158l2.605-2.58zm-6.551-11.5a25.3 25.3 0 01.128-13.207l-3.53-.991a28.966 28.966 0 00-.147 15.121l3.549-.922zm.128-13.207a25.442 25.442 0 016.776-11.371l-2.554-2.63a29.11 29.11 0 00-7.752 13.01l3.53.991zm6.776-11.371A25.72 25.72 0 0123.551 4.79l-.9-3.554a29.387 29.387 0 00-13.262 7.4l2.554 2.63zM23.551 4.79a25.853 25.853 0 0113.317.168l.99-3.53a29.52 29.52 0 00-15.207-.192l.9 3.554zm13.317.168a25.708 25.708 0 0111.438 6.768l2.62-2.565a29.375 29.375 0 00-13.068-7.733l-.99 3.53zm11.438 6.768a25.432 25.432 0 016.482 11.538l3.555-.9A29.097 29.097 0 0050.927 9.16l-2.62 2.565zM38.67 51.234v9.6h3.666v-9.6H38.67zm3.435 10.828l6.86-7.6-2.722-2.456-6.86 7.599 2.722 2.457zm-.293-9.544l23.107-23.56L62.3 26.39 39.193 49.95l2.618 2.568zm21.003-26.496L31.274 41.19l1.59 3.304 31.54-15.168-1.59-3.304zm-31.073 23.55l5.328 1.932 1.25-3.448-5.328-1.931-1.25 3.447zm-.466-8.382c-1.81.87-2.755 2.594-2.651 4.35.104 1.75 1.238 3.35 3.117 4.032l1.25-3.447c-.531-.193-.692-.544-.707-.803-.015-.254.096-.596.58-.828l-1.59-3.304zm30.58-14.048L54.34 51.903l3.51 1.065 7.512-24.762-3.509-1.064zm-9.16 25.419l-7.577-2.453-1.129 3.489 7.577 2.452 1.13-3.488zm1.646-.658c-.131.434-.813.927-1.646.658l-1.129 3.488c2.507.812 5.475-.416 6.284-3.081l-3.509-1.065z"></path>
    <defs>
        <linearGradient id="paint0_linear_422_4492" x1="2.391" x2="61.005" y1="2.167" y2="63.329" gradientUnits="userSpaceOnUse">
            <stop stop-color="#0B4AC9"></stop>
            <stop offset="1" stop-color="#C724B1"></stop>
        </linearGradient>
    </defs>
</svg>