<svg xmlns="http://www.w3.org/2000/svg" width="32" height="42" fill="none" viewBox="0 0 32 42" class="icon_icon__mP5gU icon_icon_M__PuLQC">
    <path fill="#E240C8" d="M4.48 41.26c-1.057 0-1.96-.376-2.712-1.127-.752-.752-1.128-1.656-1.13-2.714V18.214c0-1.056.377-1.96 1.13-2.712.753-.752 1.656-1.128 2.712-1.13H6.4v-3.84c0-2.657.937-4.921 2.81-6.793C11.083 1.867 13.347.93 16.003.929c2.656 0 4.921.937 6.795 2.81 1.873 1.873 2.809 4.137 2.807 6.793v3.84h1.92c1.057 0 1.962.377 2.715 1.13.753.753 1.128 1.657 1.127 2.712v19.205c0 1.056-.376 1.961-1.127 2.714-.752.753-1.656 1.128-2.714 1.127H4.48zm0-3.84h23.046V18.213H4.48v19.205zm11.523-5.763c1.056 0 1.96-.375 2.713-1.127.753-.751 1.13-1.656 1.128-2.714 0-1.056-.376-1.96-1.128-2.711-.751-.752-1.656-1.128-2.713-1.13-1.057 0-1.96.377-2.712 1.13-.752.753-1.128 1.656-1.13 2.711 0 1.057.377 1.961 1.13 2.714.753.753 1.657 1.129 2.712 1.127zM10.24 14.373h11.523v-3.841c0-1.6-.56-2.961-1.68-4.082-1.12-1.12-2.48-1.68-4.081-1.68-1.6 0-2.961.56-4.081 1.68-1.12 1.12-1.68 2.481-1.68 4.082v3.84z"></path>
</svg>