<svg xmlns="http://www.w3.org/2000/svg" width="29" height="33" fill="none" viewBox="0 0 29 33" class="icon_icon__mP5gU icon_icon_S__hV4Lw">
    <path fill="url(#paint0_linear_513_910)" fill-rule="evenodd" d="M.667 3.782A3.515 3.515 0 014.18.267h20.085a3.515 3.515 0 013.515 3.515V14.72a1.004 1.004 0 01-2.009 0V3.78c0-.831-.674-1.505-1.506-1.505H4.18c-.831 0-1.506.674-1.506 1.506v24.567c0 .832.675 1.506 1.506 1.506h8.16a1.004 1.004 0 010 2.009H4.18a3.515 3.515 0 01-3.514-3.515V3.782zM7.39 9.34c0-.555.45-1.004 1.004-1.004h12.912a1.004 1.004 0 010 2.008H8.395c-.554 0-1.004-.45-1.004-1.004zm0 6.456c0-.555.45-1.005 1.004-1.005h9.684a1.004 1.004 0 010 2.009H8.395c-.554 0-1.004-.45-1.004-1.004zm17.702 2.078a1.004 1.004 0 011.23.71l.919 3.43a1.004 1.004 0 01-.71 1.23l-3.43.918a1.004 1.004 0 01-.52-1.94l1.088-.291-.074-.043a4.017 4.017 0 00-5.488 1.47 1.004 1.004 0 11-1.739-1.004 6.025 6.025 0 018.23-2.206l.075.044-.291-1.088a1.004 1.004 0 01.71-1.23zM7.391 22.252c0-.554.45-1.004 1.004-1.004h3.228a1.004 1.004 0 110 2.008H8.395c-.554 0-1.004-.45-1.004-1.004zm14.998 4.402a1.004 1.004 0 01-.71 1.23l-1.088.292.075.043a4.017 4.017 0 005.487-1.47 1.004 1.004 0 011.74 1.004 6.025 6.025 0 01-8.232 2.205l-.074-.043.291 1.088a1.004 1.004 0 11-1.94.52l-.919-3.43a1.004 1.004 0 01.71-1.23l3.43-.919a1.004 1.004 0 011.23.71z" clip-rule="evenodd"></path>
    <defs>
        <linearGradient id="paint0_linear_513_910" x1="0.667" x2="32.278" y1="0.267" y2="27.295" gradientUnits="userSpaceOnUse">
            <stop stop-color="#0B4AC9"></stop>
            <stop offset="1" stop-color="#C724B1"></stop>
        </linearGradient>
    </defs>
</svg>