<svg xmlns="http://www.w3.org/2000/svg" width="32" height="32" fill="none" viewBox="0 0 32 32" class="icon_icon__mP5gU icon_icon_S__hV4Lw">
    <path fill="url(#paint0_linear_513_456)" fill-rule="evenodd" d="M0 3.5A3.5 3.5 0 013.5 0h25A3.5 3.5 0 0132 3.5v25a3.5 3.5 0 01-3.5 3.5h-25A3.5 3.5 0 010 28.5v-25zM3.5 2A1.5 1.5 0 002 3.5v25A1.5 1.5 0 003.5 30h25a1.5 1.5 0 001.5-1.5v-25A1.5 1.5 0 0028.5 2h-25zM16 8.25a3.145 3.145 0 100 6.29 3.145 3.145 0 000-6.29zm-5.146 3.145a5.145 5.145 0 1110.29 0 5.145 5.145 0 01-10.29 0zM9.75 20.22a1.5 1.5 0 00-1.5 1.5v3.027a1 1 0 11-2 0V21.72a3.5 3.5 0 013.5-3.5h12.5a3.5 3.5 0 013.5 3.5v3.027a1 1 0 11-2 0V21.72a1.5 1.5 0 00-1.5-1.5H9.75z" clip-rule="evenodd"></path>
    <defs>
        <linearGradient id="paint0_linear_513_456" x1="0" x2="32" y1="0" y2="32" gradientUnits="userSpaceOnUse">
            <stop stop-color="#0B4AC9"></stop>
            <stop offset="1" stop-color="#C724B1"></stop>
        </linearGradient>
    </defs>
</svg>