<svg xmlns="http://www.w3.org/2000/svg" width="28" height="32" fill="none" viewBox="0 0 28 32" class="icon_icon__mP5gU icon_icon_S__hV4Lw">
    <path fill="url(#paint0_linear_513_918)" fill-rule="evenodd" d="M23.131 19.035l3.515 1.256a1 1 0 01.664.942v4.022c0 2.19-1.512 3.883-2.77 4.933a14.06 14.06 0 01-2.55 1.68l-.05.024-.014.007-.005.002-.001.001s-.002 0-.432-.902l-.43.902h-.003l-.005-.003-.014-.007-.05-.024c-.04-.021-.099-.05-.172-.09a14.06 14.06 0 01-2.377-1.591c-1.258-1.049-2.77-2.742-2.77-4.932v-4.022a1 1 0 01.663-.942l3.513-1.256a4.877 4.877 0 013.288 0zM21.488 31l-.43.902c.271.13.588.13.86 0l-.43-.902zm0-1.132a12.06 12.06 0 001.77-1.216c1.153-.961 2.052-2.14 2.052-3.397v-3.317l-2.853-1.02a2.878 2.878 0 00-1.94 0l-2.85 1.02v3.317c0 1.257.899 2.436 2.051 3.397a12.06 12.06 0 001.77 1.216z" clip-rule="evenodd"></path>
    <path fill="url(#paint1_linear_513_918)" fill-rule="evenodd" d="M7.362 9.037a1 1 0 011-1H21.22a1 1 0 010 2H8.362a1 1 0 01-1-1zm0 6.428a1 1 0 011-1h9.643a1 1 0 010 2H8.362a1 1 0 01-1-1zm0 6.429a1 1 0 011-1h3.214a1 1 0 110 2H8.362a1 1 0 01-1-1z" clip-rule="evenodd"></path>
    <path fill="url(#paint2_linear_513_918)" fill-rule="evenodd" d="M.667 3.5a3.5 3.5 0 013.5-3.5h20a3.5 3.5 0 013.5 3.5v10.893a1 1 0 01-2 0V3.5a1.5 1.5 0 00-1.5-1.5h-20a1.5 1.5 0 00-1.5 1.5v24.464a1.5 1.5 0 001.5 1.5h8.125a1 1 0 110 2H4.167a3.5 3.5 0 01-3.5-3.5V3.5z" clip-rule="evenodd"></path>
    <defs>
        <linearGradient id="paint0_linear_513_918" x1="15.667" x2="28.807" y1="18.75" y2="30.296" gradientUnits="userSpaceOnUse">
            <stop stop-color="#0B4AC9"></stop>
            <stop offset="1" stop-color="#C724B1"></stop>
        </linearGradient>
        <linearGradient id="paint1_linear_513_918" x1="7.362" x2="22.219" y1="8.037" y2="22.894" gradientUnits="userSpaceOnUse">
            <stop stop-color="#0B4AC9"></stop>
            <stop offset="1" stop-color="#C724B1"></stop>
        </linearGradient>
        <linearGradient id="paint2_linear_513_918" x1="0.667" x2="31.766" y1="0" y2="26.687" gradientUnits="userSpaceOnUse">
            <stop stop-color="#0B4AC9"></stop>
            <stop offset="1" stop-color="#C724B1"></stop>
        </linearGradient>
    </defs>
</svg>